# xmcd
#
# Track frame offsets:
#	150
#	23198
#	44250
#	67259
#	85752
#	103138
#	121859
#	141224
#	159878
#	173707
#	194698
#	210701
#	232029
#	246261
#	266913
#	279787
#	299323
#
# Disc length: 4286 seconds
#
# Revision: 0
# Processed by: cddbd v1.5.2PL0 Copyright (c) Steve Scherf et al.
# Submitted via: audiograbber 1.83.01
#
DISCID=fd10bc11
DTITLE=Alan Jackson - Good Time
DYEAR=2008
DGENRE=Country
TTITLE0=Good Time
TTITLE1=Small Town Southern Man
TTITLE2=I Wish I Could Back Up
TTITLE3=Country Boy
TTITLE4=Right Where I Want You
TTITLE5=1976
TTITLE6=When The Love Factor's High
TTITLE7=Long Long Way
TTITLE8=Sissy's Song
TTITLE9=I Still Like Bologna
TTITLE10=Never Loved Before [w. Martina
TTITLE11=Nothing Left To Do
TTITLE12=Listen To Your Senses
TTITLE13=This Time
TTITLE14=Laid Back 'n Low Key [Cay]
TTITLE15=If You Want To Make Me Happy
TTITLE16=If Jesus Walked The World oday
EXTD=
EXTT0=
EXTT1=
EXTT2=
EXTT3=
EXTT4=
EXTT5=
EXTT6=
EXTT7=
EXTT8=
EXTT9=
EXTT10=
EXTT11=
EXTT12=
EXTT13=
EXTT14=
EXTT15=
EXTT16=
PLAYORDER=
